<svg version="1.1" xmlns="http://www.w3.org/2000/svg" xmlns:xlink="http://www.w3.org/1999/xlink" width="80" height="80" viewBox="0,0,80,80">
	<desc>filter_4 icon - Licensed under Apache License v2.0 (http://www.apache.org/licenses/LICENSE-2.0) - Created with Iconfu.com - Derivative work of Material icons (Copyright Google Inc.)</desc>
	<g fill="#26a69a" fill-rule="nonzero" style="mix-blend-mode: normal">
		<path d="M64.51,80h-49.02c-8.55,0 -15.49,-6.93 -15.49,-15.49v-49.02c0,-8.55 6.93,-15.49 15.49,-15.49h49.02c8.55,0 15.49,6.93 15.49,15.49v49.02c0,8.55 -6.93,15.49 -15.49,15.49zM20.5,24.83h-4.33v34.67c0,2.38 1.95,4.33 4.33,4.33h34.67v-4.33h-34.67zM59.5,16.17h-30.33c-2.38,0 -4.33,1.95 -4.33,4.33v30.33c0,2.38 1.95,4.33 4.33,4.33h30.33c2.38,0 4.33,-1.95 4.33,-4.33v-30.33c0,-2.38 -1.95,-4.33 -4.33,-4.33zM59.5,50.83h-30.33v-30.33h30.33zM46.5,46.5h4.33v-21.67h-4.33v8.67h-4.33v-8.67h-4.33v13h8.67z"/>
	</g>
</svg>