<svg width="36" height="36" viewBox="0 0 36 36" fill="none" xmlns="http://www.w3.org/2000/svg">
<ellipse cx="17.7648" cy="17.8719" rx="17.7648" ry="17.8719" fill="white"/>
<path fill-rule="evenodd" clip-rule="evenodd" d="M28.6464 12.8441C27.8851 13.1837 27.0662 13.4134 26.2073 13.516C27.0842 12.9874 27.7571 12.1512 28.0748 11.153C27.2543 11.6427 26.3451 11.9979 25.3783 12.1894C24.6037 11.3595 23.5001 10.8408 22.2781 10.8408C19.9334 10.8408 18.0318 12.7539 18.0318 15.1127C18.0318 15.4475 18.0695 15.7735 18.1423 16.0863C14.6133 15.9082 11.4842 14.2076 9.38977 11.6223C9.02433 12.2531 8.81469 12.9874 8.81469 13.7702C8.81469 15.2519 9.56489 16.56 10.7036 17.3259C10.0079 17.3039 9.35272 17.1118 8.78049 16.791C8.78017 16.8092 8.78017 16.8273 8.78017 16.8452C8.78017 18.915 10.2445 20.6414 12.1866 21.0336C11.8307 21.1317 11.4548 21.1837 11.0681 21.1837C10.7939 21.1837 10.5282 21.1572 10.2692 21.1075C10.8094 22.8043 12.3773 24.0394 14.2358 24.0742C12.7823 25.2201 10.9516 25.9028 8.96162 25.9028C8.61962 25.9028 8.28078 25.8828 7.94922 25.8429C9.82741 27.0555 12.06 27.7624 14.4578 27.7624C22.2682 27.7624 26.5395 21.2531 26.5395 15.6075C26.5395 15.4224 26.5354 15.2379 26.5272 15.0551C27.3575 14.4529 28.0773 13.7007 28.6464 12.8441Z" fill="#262626"/>
</svg>
