<svg width="36" height="36" viewBox="0 0 36 36" fill="none" xmlns="http://www.w3.org/2000/svg">
<ellipse cx="17.7648" cy="17.8719" rx="17.7648" ry="17.8719" fill="white"/>
<path fill-rule="evenodd" clip-rule="evenodd" d="M17.0964 25.7103H18.4907C18.4907 25.7103 18.9118 25.6638 19.1269 25.4306C19.3248 25.2165 19.3185 24.8144 19.3185 24.8144C19.3185 24.8144 19.2912 22.9323 20.1595 22.6551C21.0155 22.3821 22.1147 24.4742 23.2797 25.2786C24.1607 25.8874 24.8302 25.754 24.8302 25.754L27.9453 25.7103C27.9453 25.7103 29.5749 25.6093 28.8022 24.3203C28.7389 24.2149 28.3522 23.3668 26.486 21.6241C24.5328 19.8003 24.7944 20.0953 27.1473 16.9403C28.5802 15.0189 29.1531 13.8459 28.9742 13.3435C28.8035 12.865 27.7496 12.9915 27.7496 12.9915L24.2421 13.0135C24.2421 13.0135 23.9821 12.9778 23.7893 13.0937C23.6008 13.2075 23.4795 13.4725 23.4795 13.4725C23.4795 13.4725 22.9244 14.9594 22.184 16.2238C20.6222 18.892 19.9977 19.0328 19.7425 18.8671C19.1487 18.481 19.2969 17.3159 19.2969 16.4883C19.2969 13.9026 19.6867 12.8245 18.5379 12.5455C18.1566 12.4527 17.876 12.3916 16.901 12.3817C15.6495 12.3686 14.5902 12.3855 13.9904 12.6812C13.5914 12.8777 13.2836 13.3158 13.4711 13.341C13.7029 13.3722 14.2279 13.4834 14.5063 13.8647C14.8657 14.3566 14.853 15.4615 14.853 15.4615C14.853 15.4615 15.0595 18.5052 14.3707 18.8834C13.8979 19.1427 13.2494 18.6132 11.857 16.1926C11.1435 14.9527 10.6049 13.5821 10.6049 13.5821C10.6049 13.5821 10.501 13.326 10.3157 13.189C10.0909 13.023 9.77675 12.9701 9.77675 12.9701L6.44376 12.9921C6.44376 12.9921 5.94341 13.0061 5.75974 13.225C5.59634 13.4197 5.74676 13.8223 5.74676 13.8223C5.74676 13.8223 8.35615 19.964 11.3107 23.059C14.0199 25.8967 17.0964 25.7103 17.0964 25.7103Z" fill="#262626"/>
</svg>
