<svg width="36" height="36" viewBox="0 0 36 36" fill="none" xmlns="http://www.w3.org/2000/svg">
<ellipse cx="17.7648" cy="17.8719" rx="17.7648" ry="17.8719" fill="white"/>
<path fill-rule="evenodd" clip-rule="evenodd" d="M25.3481 11.1171C26.6588 11.1858 27.3025 11.3665 27.8957 12.3491C28.5135 13.3304 28.8251 15.0205 28.8251 17.9975V18.0013V18.0076C28.8251 20.9705 28.5135 22.6735 27.897 23.6445C27.3039 24.6271 26.6601 24.8053 25.3494 24.888C24.0387 24.958 20.7462 25 17.8938 25C15.0359 25 11.742 24.958 10.4327 24.8867C9.1247 24.804 8.48096 24.6258 7.88232 23.6433C7.27138 22.6722 6.95703 20.9693 6.95703 18.0064V18.0038V18V17.9962C6.95703 15.0205 7.27138 13.3304 7.88232 12.3491C8.48096 11.3653 9.12607 11.1858 10.434 11.1158C11.742 11.0344 15.0359 11 17.8938 11C20.7462 11 24.0387 11.0344 25.3481 11.1171ZM21.99 18.0001L15.1562 14.1819V21.8182L21.99 18.0001Z" fill="#262626"/>
</svg>
