<svg width="36" height="36" viewBox="0 0 36 36" fill="none" xmlns="http://www.w3.org/2000/svg">
<ellipse cx="17.7647" cy="17.8719" rx="17.7647" ry="17.8719" fill="white"/>
<path fill-rule="evenodd" clip-rule="evenodd" d="M24.6057 17.8674C25.1824 18.4717 25.1601 19.4292 24.5558 20.006C23.2975 21.2069 21.5513 21.8843 19.353 22.0822L23.255 25.834L23.3677 25.9546C23.857 26.5391 23.8373 27.4107 23.2968 27.9726C23.0266 28.2536 22.674 28.4076 22.3135 28.433L22.1587 28.436C21.8491 28.4263 21.5416 28.3221 21.2831 28.1223L21.1582 28.0145L17.5653 24.559L13.9738 28.0145C13.733 28.2461 13.4352 28.382 13.1276 28.4233L12.9732 28.436C12.5604 28.449 12.1439 28.2938 11.8351 27.9726C11.2947 27.4107 11.275 26.5391 11.7643 25.9546L11.8769 25.834L15.8536 22.01C13.9512 21.7463 12.4195 21.0891 11.2847 20.006C10.6804 19.4292 10.658 18.4717 11.2348 17.8674C11.5039 17.5854 11.856 17.4302 12.2164 17.4034L12.3711 17.3998C12.7324 17.4097 13.0913 17.5484 13.3733 17.8176C14.255 18.659 15.7496 19.1187 17.9202 19.1187C20.0909 19.1187 21.5855 18.659 22.4672 17.8176C22.7089 17.5868 23.0071 17.452 23.3149 17.4119L23.4693 17.3998C23.8822 17.3884 24.2981 17.5451 24.6057 17.8674ZM18.028 7C20.846 7 23.1305 9.1859 23.1305 11.8824C23.1305 14.5018 20.9747 16.6394 18.2682 16.7594L18.028 16.7647C15.2099 16.7647 12.9254 14.5788 12.9254 11.8824C12.9254 9.26295 15.0812 7.12533 17.7878 7.00531L18.028 7ZM18.0266 10.0251C16.8502 10.0251 15.9492 10.8872 15.9492 11.8824C15.9492 12.8775 16.8502 13.7396 18.0266 13.7396C19.203 13.7396 20.104 12.8775 20.104 11.8824C20.104 10.8872 19.203 10.0251 18.0266 10.0251Z" fill="#262626"/>
</svg>
