<svg width="177" height="331" viewBox="0 0 177 331" fill="none" xmlns="http://www.w3.org/2000/svg">
<rect x="2.5" y="2.5" width="172" height="326" rx="17.5" fill="white" stroke="#161616" stroke-width="5" stroke-linejoin="round"/>
<path d="M56 5H121V6C121 11.5228 116.523 16 111 16H66C60.4772 16 56 11.5228 56 6V5Z" fill="#161616"/>
<rect x="16" y="28" width="105" height="16" fill="#C4C4C4"/>
<rect x="16" y="265" width="83" height="16" fill="#C4C4C4"/>
<rect x="119" y="265" width="42" height="16" fill="#C4C4C4"/>
<rect x="16" y="56" width="34" height="7" fill="#A6F3E1"/>
<rect x="127" y="56" width="34" height="7" fill="#A6F3E1"/>
<rect x="72" y="56" width="34" height="7" fill="#A6F3E1"/>
<rect x="120" y="97" width="41" height="70" rx="6" fill="#A5F0CC"/>
<rect x="120" y="97" width="41" height="70" rx="6" fill="url(#paint0_linear)"/>
<rect x="16" y="134" width="41" height="33" rx="6" fill="#A5F0CC"/>
<rect x="16" y="134" width="41" height="33" rx="6" fill="url(#paint1_linear)"/>
<rect x="16" y="198" width="20" height="20" rx="6" fill="#A5F0CC"/>
<rect x="16" y="198" width="20" height="20" rx="6" fill="url(#paint2_linear)"/>
<rect x="99" y="200" width="20" height="20" rx="6" fill="#A5F0CC"/>
<rect x="99" y="200" width="20" height="20" rx="6" fill="url(#paint3_linear)"/>
<rect x="68" y="81" width="41" height="86" rx="6" fill="#A5F0CC"/>
<rect x="68" y="81" width="41" height="86" rx="6" fill="url(#paint4_linear)"/>
<rect x="16" y="245" width="145" height="10" fill="#C4C4C4"/>
<rect x="16" y="174" width="40" height="6" fill="#C4C4C4"/>
<rect x="121" y="174" width="40" height="6" fill="#C4C4C4"/>
<rect x="69" y="174" width="40" height="6" fill="#C4C4C4"/>
<rect x="40" y="200" width="27" height="6" fill="#FFE087"/>
<rect x="40" y="212" width="38" height="6" fill="#FFE087"/>
<rect x="83" y="291" width="78" height="6" fill="#FFE087"/>
<rect x="16" y="291" width="62" height="6" fill="#FFE087"/>
<rect x="123" y="200" width="27" height="6" fill="#FE9E9E"/>
<rect x="123" y="212" width="38" height="6" fill="#FE9E9E"/>
<rect x="119" y="304" width="42" height="6" fill="#FE9E9E"/>
<rect x="16" y="304" width="93" height="6" fill="#FE9E9E"/>
<defs>
<linearGradient id="paint0_linear" x1="140.5" y1="97" x2="140.5" y2="167" gradientUnits="userSpaceOnUse">
<stop offset="0.25" stop-color="#BCF5F9"/>
<stop offset="0.869792" stop-color="white" stop-opacity="0"/>
</linearGradient>
<linearGradient id="paint1_linear" x1="36.5" y1="134" x2="36.5" y2="167" gradientUnits="userSpaceOnUse">
<stop offset="0.25" stop-color="#BCF5F9"/>
<stop offset="0.869792" stop-color="white" stop-opacity="0"/>
</linearGradient>
<linearGradient id="paint2_linear" x1="26" y1="198" x2="26" y2="218" gradientUnits="userSpaceOnUse">
<stop offset="0.25" stop-color="#BCF5F9"/>
<stop offset="0.869792" stop-color="white" stop-opacity="0"/>
</linearGradient>
<linearGradient id="paint3_linear" x1="109" y1="200" x2="109" y2="220" gradientUnits="userSpaceOnUse">
<stop offset="0.25" stop-color="#BCF5F9"/>
<stop offset="0.869792" stop-color="white" stop-opacity="0"/>
</linearGradient>
<linearGradient id="paint4_linear" x1="88.5" y1="81" x2="88.5" y2="167" gradientUnits="userSpaceOnUse">
<stop offset="0.25" stop-color="#BCF5F9"/>
<stop offset="0.869792" stop-color="white" stop-opacity="0"/>
</linearGradient>
</defs>
</svg>
