<svg width="211" height="139" viewBox="0 0 211 139" fill="none" xmlns="http://www.w3.org/2000/svg">
<rect opacity="0.2" y="20" width="190.195" height="118.122" rx="16" fill="url(#paint0_linear)"/>
<rect x="20" width="190.195" height="118.122" rx="16" fill="#C4C4D1"/>
<rect x="20" width="190.195" height="118.122" rx="16" fill="url(#paint1_linear)"/>
<rect opacity="0.2" x="38.6689" y="90.0536" width="67.3224" height="9.35622" rx="4" fill="white"/>
<path d="M67.1544 36.6358C69.0719 33.2666 73.9281 33.2666 75.8456 36.6358L97.1249 74.0269C99.0219 77.3602 96.6146 81.5 92.7794 81.5H50.2206C46.3854 81.5 43.9781 77.3602 45.8751 74.0269L67.1544 36.6358Z" fill="#8D8B87" fill-opacity="0.54"/>
<path d="M68.4019 53.5C69.5566 51.5 72.4434 51.5 73.5981 53.5L81.3923 67C82.547 69 81.1036 71.5 78.7942 71.5H63.2058C60.8964 71.5 59.453 69 60.6077 67L68.4019 53.5Z" fill="white" fill-opacity="0.55"/>
<defs>
<linearGradient id="paint0_linear" x1="190.195" y1="44.4682" x2="19.381" y2="102.737" gradientUnits="userSpaceOnUse">
<stop stop-color="#353736"/>
<stop offset="1"/>
</linearGradient>
<linearGradient id="paint1_linear" x1="210.195" y1="24.4682" x2="39.381" y2="82.7367" gradientUnits="userSpaceOnUse">
<stop stop-color="#D2583D"/>
<stop offset="1" stop-color="#4A21A0"/>
</linearGradient>
</defs>
</svg>
