<svg width="177" height="331" viewBox="0 0 177 331" fill="none" xmlns="http://www.w3.org/2000/svg">
<rect x="2.5" y="2.5" width="172" height="326" rx="17.5" fill="white" stroke="#161616" stroke-width="5" stroke-linejoin="round"/>
<path d="M56 5H121V6C121 11.5228 116.523 16 111 16H66C60.4772 16 56 11.5228 56 6V5Z" fill="#161616"/>
<rect x="16" y="28" width="145" height="16" fill="#C4C4C4"/>
<rect x="17" y="111" width="88" height="16" fill="#C4C4C4"/>
<rect x="100" y="271" width="61" height="16" fill="#C4C4C4"/>
<rect x="100" y="299" width="61" height="16" fill="#C4C4C4"/>
<rect x="17" y="56" width="85" height="15" fill="#A6F3E1"/>
<rect x="17" y="151" width="61" height="20" rx="6" fill="#A5F0CC"/>
<rect x="17" y="151" width="61" height="20" rx="6" fill="url(#paint0_linear)"/>
<rect x="17" y="180" width="61" height="20" rx="6" fill="#A5F0CC"/>
<rect x="17" y="180" width="61" height="20" rx="6" fill="url(#paint1_linear)"/>
<rect x="16" y="298" width="61" height="20" rx="6" fill="#A5F0CC"/>
<rect x="16" y="298" width="61" height="20" rx="6" fill="url(#paint2_linear)"/>
<rect x="17" y="269" width="61" height="20" rx="6" fill="#A5F0CC"/>
<rect x="17" y="269" width="61" height="20" rx="6" fill="url(#paint3_linear)"/>
<rect x="141" y="56" width="20" height="20" rx="6" fill="#A5F0CC"/>
<rect x="141" y="56" width="20" height="20" rx="6" fill="url(#paint4_linear)"/>
<rect x="17" y="215" width="144" height="10" fill="#C4C4C4"/>
<rect x="17" y="80" width="36" height="6" fill="#C4C4C4"/>
<rect x="17" y="134" width="102" height="6" fill="#C4C4C4"/>
<rect x="100" y="151" width="40" height="6" fill="#FFE087"/>
<rect x="100" y="163" width="61" height="6" fill="#FFE087"/>
<rect x="100" y="181" width="40" height="6" fill="#FE9E9E"/>
<rect x="100" y="193" width="61" height="6" fill="#FE9E9E"/>
<rect x="90" y="238" width="71" height="6" fill="#FFE087"/>
<rect x="17" y="238" width="54" height="6" fill="#FFE087"/>
<rect x="128" y="251" width="33" height="6" fill="#FE9E9E"/>
<rect x="17" y="251" width="85" height="6" fill="#FE9E9E"/>
<defs>
<linearGradient id="paint0_linear" x1="47.5" y1="151" x2="47.5" y2="171" gradientUnits="userSpaceOnUse">
<stop offset="0.25" stop-color="#BCF5F9"/>
<stop offset="0.869792" stop-color="white" stop-opacity="0"/>
</linearGradient>
<linearGradient id="paint1_linear" x1="47.5" y1="180" x2="47.5" y2="200" gradientUnits="userSpaceOnUse">
<stop offset="0.25" stop-color="#BCF5F9"/>
<stop offset="0.869792" stop-color="white" stop-opacity="0"/>
</linearGradient>
<linearGradient id="paint2_linear" x1="46.5" y1="298" x2="46.5" y2="318" gradientUnits="userSpaceOnUse">
<stop offset="0.25" stop-color="#BCF5F9"/>
<stop offset="0.869792" stop-color="white" stop-opacity="0"/>
</linearGradient>
<linearGradient id="paint3_linear" x1="47.5" y1="269" x2="47.5" y2="289" gradientUnits="userSpaceOnUse">
<stop offset="0.25" stop-color="#BCF5F9"/>
<stop offset="0.869792" stop-color="white" stop-opacity="0"/>
</linearGradient>
<linearGradient id="paint4_linear" x1="151" y1="56" x2="151" y2="76" gradientUnits="userSpaceOnUse">
<stop offset="0.25" stop-color="#BCF5F9"/>
<stop offset="0.869792" stop-color="white" stop-opacity="0"/>
</linearGradient>
</defs>
</svg>
