<svg width="103" height="28" viewBox="0 0 103 28" fill="none" xmlns="http://www.w3.org/2000/svg">
<g filter="url(#filter0_d)">
<path d="M21.8745 0.499999V18H17.5745V4.3H11.7745V10.6C11.7745 13.0667 11.2328 14.9167 10.1495 16.15C9.06618 17.3833 7.30785 18 4.87451 18V14.425C5.70785 14.425 6.35785 14.1 6.82451 13.45C7.29118 12.8 7.52451 11.9333 7.52451 10.85V0.499999H21.8745ZM24.6628 12.25C24.6628 11.0333 24.9461 9.975 25.5128 9.075C26.0961 8.175 26.8795 7.475 27.8628 6.975C28.8628 6.475 29.9878 6.225 31.2378 6.225C32.5045 6.225 33.6295 6.475 34.6128 6.975C35.5961 7.475 36.3711 8.175 36.9378 9.075C37.5211 9.975 37.8128 11.0333 37.8128 12.25C37.8128 13.45 37.5211 14.5 36.9378 15.4C36.3711 16.3 35.5961 17 34.6128 17.5C33.6295 18 32.5045 18.25 31.2378 18.25C29.9878 18.25 28.8628 18 27.8628 17.5C26.8795 17 26.0961 16.3 25.5128 15.4C24.9461 14.5 24.6628 13.45 24.6628 12.25ZM28.5628 12.25C28.5628 13.1333 28.8211 13.8333 29.3378 14.35C29.8711 14.8667 30.5045 15.125 31.2378 15.125C31.9711 15.125 32.5961 14.8667 33.1128 14.35C33.6461 13.8333 33.9128 13.1333 33.9128 12.25C33.9128 11.3667 33.6461 10.6667 33.1128 10.15C32.5961 9.61667 31.9711 9.35 31.2378 9.35C30.5045 9.35 29.8711 9.61667 29.3378 10.15C28.8211 10.6667 28.5628 11.3667 28.5628 12.25ZM40.1095 6.5H47.4845V9.625H43.8345V18H40.1095V6.5ZM47.9782 12.25C47.9782 11.0333 48.2616 9.975 48.8282 9.075C49.4116 8.175 50.1949 7.475 51.1782 6.975C52.1782 6.475 53.3032 6.225 54.5532 6.225C55.8199 6.225 56.9449 6.475 57.9282 6.975C58.9116 7.475 59.6866 8.175 60.2532 9.075C60.8366 9.975 61.1282 11.0333 61.1282 12.25C61.1282 13.45 60.8366 14.5 60.2532 15.4C59.6866 16.3 58.9116 17 57.9282 17.5C56.9449 18 55.8199 18.25 54.5532 18.25C53.3032 18.25 52.1782 18 51.1782 17.5C50.1949 17 49.4116 16.3 48.8282 15.4C48.2616 14.5 47.9782 13.45 47.9782 12.25ZM51.8782 12.25C51.8782 13.1333 52.1366 13.8333 52.6532 14.35C53.1866 14.8667 53.8199 15.125 54.5532 15.125C55.2866 15.125 55.9116 14.8667 56.4282 14.35C56.9616 13.8333 57.2282 13.1333 57.2282 12.25C57.2282 11.3667 56.9616 10.6667 56.4282 10.15C55.9116 9.61667 55.2866 9.35 54.5532 9.35C53.8199 9.35 53.1866 9.61667 52.6532 10.15C52.1366 10.6667 51.8782 11.3667 51.8782 12.25ZM62.0249 6.5H70.0999V9.625H67.8749V18H64.2499V9.625H62.0249V6.5ZM75.4001 6.5V11.975L83.5001 5.625V18H79.8501V12.525L71.7501 18.875V6.5H75.4001ZM97.8956 6.5V18H94.2456V9.775H90.1206V18H86.4706V6.5H97.8956Z" fill="#B336FF"/>
<path d="M21.8745 0.499999H22.1245V0.249999H21.8745V0.499999ZM21.8745 18V18.25H22.1245V18H21.8745ZM17.5745 18H17.3245V18.25H17.5745V18ZM17.5745 4.3H17.8245V4.05H17.5745V4.3ZM11.7745 4.3V4.05H11.5245V4.3H11.7745ZM10.1495 16.15L10.3373 16.315L10.3373 16.315L10.1495 16.15ZM4.87451 18H4.62451V18.25H4.87451V18ZM4.87451 14.425V14.175H4.62451V14.425H4.87451ZM6.82451 13.45L7.02759 13.5958L7.02759 13.5958L6.82451 13.45ZM7.52451 0.499999V0.249999H7.27451V0.499999H7.52451ZM21.6245 0.499999V18H22.1245V0.499999H21.6245ZM21.8745 17.75H17.5745V18.25H21.8745V17.75ZM17.8245 18V4.3H17.3245V18H17.8245ZM17.5745 4.05H11.7745V4.55H17.5745V4.05ZM11.5245 4.3V10.6H12.0245V4.3H11.5245ZM11.5245 10.6C11.5245 13.0355 10.989 14.8155 9.96168 15.985L10.3373 16.315C11.4767 15.0179 12.0245 13.0978 12.0245 10.6H11.5245ZM9.96168 15.985C8.94492 17.1426 7.27108 17.75 4.87451 17.75V18.25C7.34461 18.25 9.18744 17.6241 10.3373 16.315L9.96168 15.985ZM5.12451 18V14.425H4.62451V18H5.12451ZM4.87451 14.675C5.78443 14.675 6.51171 14.3144 7.02759 13.5958L6.62143 13.3042C6.20398 13.8856 5.63126 14.175 4.87451 14.175V14.675ZM7.02759 13.5958C7.5339 12.8906 7.77451 11.9675 7.77451 10.85H7.27451C7.27451 11.8992 7.04846 12.7094 6.62143 13.3042L7.02759 13.5958ZM7.77451 10.85V0.499999H7.27451V10.85H7.77451ZM7.52451 0.749999H21.8745V0.249999H7.52451V0.749999ZM25.5128 9.075L25.303 8.93901L25.3012 8.9418L25.5128 9.075ZM27.8628 6.975L27.751 6.75139L27.7495 6.75215L27.8628 6.975ZM34.6128 6.975L34.4995 7.19785L34.4995 7.19785L34.6128 6.975ZM36.9378 9.075L36.7262 9.20821L36.728 9.21097L36.9378 9.075ZM36.9378 15.4L36.728 15.264L36.7262 15.2668L36.9378 15.4ZM34.6128 17.5L34.4995 17.2772L34.4995 17.2772L34.6128 17.5ZM27.8628 17.5L27.7495 17.7229L27.751 17.7236L27.8628 17.5ZM25.5128 15.4L25.3012 15.5332L25.303 15.536L25.5128 15.4ZM29.3378 14.35L29.161 14.5268L29.1638 14.5296L29.3378 14.35ZM33.1128 14.35L32.9388 14.1704L32.936 14.1732L33.1128 14.35ZM33.1128 10.15L32.9331 10.324L32.9388 10.3296L33.1128 10.15ZM29.3378 10.15L29.5146 10.3268L29.5146 10.3268L29.3378 10.15ZM24.9128 12.25C24.9128 11.0735 25.1863 10.0628 25.7244 9.2082L25.3012 8.9418C24.706 9.88718 24.4128 10.9931 24.4128 12.25H24.9128ZM25.7226 9.21097C26.2813 8.34901 27.0308 7.67849 27.9761 7.19785L27.7495 6.75215C26.7281 7.27151 25.911 8.00099 25.303 8.93903L25.7226 9.21097ZM27.9746 7.19861C28.936 6.71792 30.022 6.475 31.2378 6.475V5.975C29.9536 5.975 28.7896 6.23208 27.751 6.75139L27.9746 7.19861ZM31.2378 6.475C32.4709 6.475 33.5561 6.71818 34.4995 7.19785L34.7261 6.75215C33.7028 6.23182 32.538 5.975 31.2378 5.975V6.475ZM34.4995 7.19785C35.4441 7.67818 36.1845 8.34787 36.7262 9.2082L37.1494 8.9418C36.5577 8.00213 35.7481 7.27182 34.7261 6.75215L34.4995 7.19785ZM36.728 9.21097C37.2817 10.0652 37.5628 11.0749 37.5628 12.25H38.0628C38.0628 10.9918 37.7606 9.88478 37.1476 8.93903L36.728 9.21097ZM37.5628 12.25C37.5628 13.4077 37.282 14.4092 36.728 15.264L37.1476 15.536C37.7602 14.5908 38.0628 13.4923 38.0628 12.25H37.5628ZM36.7262 15.2668C36.1845 16.1271 35.4441 16.7968 34.4995 17.2772L34.7261 17.7228C35.7481 17.2032 36.5577 16.4729 37.1494 15.5332L36.7262 15.2668ZM34.4995 17.2772C33.5561 17.7568 32.4709 18 31.2378 18V18.5C32.538 18.5 33.7028 18.2432 34.7261 17.7228L34.4995 17.2772ZM31.2378 18C30.022 18 28.936 17.7571 27.9746 17.2764L27.751 17.7236C28.7896 18.2429 29.9536 18.5 31.2378 18.5V18ZM27.9761 17.2772C27.0308 16.7965 26.2813 16.126 25.7226 15.264L25.303 15.536C25.911 16.474 26.7281 17.2035 27.7495 17.7228L27.9761 17.2772ZM25.7244 15.2668C25.1859 14.4116 24.9128 13.4091 24.9128 12.25H24.4128C24.4128 13.4909 24.7063 14.5884 25.3012 15.5332L25.7244 15.2668ZM28.3128 12.25C28.3128 13.1848 28.588 13.9537 29.161 14.5268L29.5146 14.1732C29.0543 13.713 28.8128 13.0818 28.8128 12.25H28.3128ZM29.1638 14.5296C29.7432 15.0908 30.4386 15.375 31.2378 15.375V14.875C30.5703 14.875 29.9991 14.6426 29.5117 14.1704L29.1638 14.5296ZM31.2378 15.375C32.0372 15.375 32.7258 15.0905 33.2896 14.5268L32.936 14.1732C32.4664 14.6428 31.9051 14.875 31.2378 14.875V15.375ZM33.2867 14.5296C33.8778 13.957 34.1628 13.1872 34.1628 12.25H33.6628C33.6628 13.0795 33.4145 13.7097 32.9388 14.1704L33.2867 14.5296ZM34.1628 12.25C34.1628 11.3128 33.8778 10.543 33.2867 9.97044L32.9388 10.3296C33.4145 10.7903 33.6628 11.4205 33.6628 12.25H34.1628ZM33.2924 9.97605C32.7293 9.3948 32.0398 9.1 31.2378 9.1V9.6C31.9025 9.6 32.463 9.83854 32.9332 10.3239L33.2924 9.97605ZM31.2378 9.1C30.4361 9.1 29.7397 9.3945 29.161 9.97322L29.5146 10.3268C30.0025 9.83883 30.5729 9.6 31.2378 9.6V9.1ZM29.161 9.97322C28.588 10.5463 28.3128 11.3152 28.3128 12.25H28.8128C28.8128 11.4182 29.0543 10.787 29.5146 10.3268L29.161 9.97322ZM40.1095 6.5V6.25H39.8595V6.5H40.1095ZM47.4845 6.5H47.7345V6.25H47.4845V6.5ZM47.4845 9.625V9.875H47.7345V9.625H47.4845ZM43.8345 9.625V9.375H43.5845V9.625H43.8345ZM43.8345 18V18.25H44.0845V18H43.8345ZM40.1095 18H39.8595V18.25H40.1095V18ZM40.1095 6.75H47.4845V6.25H40.1095V6.75ZM47.2345 6.5V9.625H47.7345V6.5H47.2345ZM47.4845 9.375H43.8345V9.875H47.4845V9.375ZM43.5845 9.625V18H44.0845V9.625H43.5845ZM43.8345 17.75H40.1095V18.25H43.8345V17.75ZM40.3595 18V6.5H39.8595V18H40.3595ZM48.8282 9.075L48.6184 8.93901L48.6167 8.9418L48.8282 9.075ZM51.1782 6.975L51.0664 6.75139L51.0649 6.75215L51.1782 6.975ZM57.9282 6.975L57.8149 7.19785L57.8149 7.19785L57.9282 6.975ZM60.2532 9.075L60.0416 9.20821L60.0434 9.21097L60.2532 9.075ZM60.2532 15.4L60.0434 15.264L60.0417 15.2668L60.2532 15.4ZM57.9282 17.5L57.8149 17.2772L57.8149 17.2772L57.9282 17.5ZM51.1782 17.5L51.0649 17.7229L51.0664 17.7236L51.1782 17.5ZM48.8282 15.4L48.6166 15.5332L48.6184 15.536L48.8282 15.4ZM52.6532 14.35L52.4764 14.5268L52.4793 14.5296L52.6532 14.35ZM56.4282 14.35L56.2543 14.1704L56.2514 14.1732L56.4282 14.35ZM56.4282 10.15L56.2486 10.324L56.2543 10.3296L56.4282 10.15ZM52.6532 10.15L52.83 10.3268L52.83 10.3268L52.6532 10.15ZM48.2282 12.25C48.2282 11.0735 48.5017 10.0628 49.0398 9.2082L48.6167 8.9418C48.0214 9.88718 47.7282 10.9931 47.7282 12.25H48.2282ZM49.038 9.21097C49.5967 8.34901 50.3463 7.67849 51.2915 7.19785L51.0649 6.75215C50.0435 7.27151 49.2264 8.00099 48.6184 8.93903L49.038 9.21097ZM51.29 7.19861C52.2514 6.71792 53.3374 6.475 54.5532 6.475V5.975C53.269 5.975 52.1051 6.23208 51.0664 6.75139L51.29 7.19861ZM54.5532 6.475C55.7864 6.475 56.8716 6.71818 57.8149 7.19785L58.0415 6.75215C57.0182 6.23182 55.8534 5.975 54.5532 5.975V6.475ZM57.8149 7.19785C58.7596 7.67818 59.5 8.34787 60.0417 9.2082L60.4648 8.9418C59.8731 8.00213 59.0635 7.27182 58.0415 6.75215L57.8149 7.19785ZM60.0434 9.21097C60.5971 10.0652 60.8782 11.0749 60.8782 12.25H61.3782C61.3782 10.9918 61.076 9.88478 60.463 8.93903L60.0434 9.21097ZM60.8782 12.25C60.8782 13.4077 60.5975 14.4092 60.0434 15.264L60.463 15.536C61.0756 14.5908 61.3782 13.4923 61.3782 12.25H60.8782ZM60.0417 15.2668C59.5 16.1271 58.7596 16.7968 57.8149 17.2772L58.0415 17.7228C59.0635 17.2032 59.8731 16.4729 60.4648 15.5332L60.0417 15.2668ZM57.8149 17.2772C56.8716 17.7568 55.7864 18 54.5532 18V18.5C55.8534 18.5 57.0182 18.2432 58.0415 17.7228L57.8149 17.2772ZM54.5532 18C53.3374 18 52.2514 17.7571 51.29 17.2764L51.0664 17.7236C52.1051 18.2429 53.269 18.5 54.5532 18.5V18ZM51.2915 17.2772C50.3463 16.7965 49.5967 16.126 49.038 15.264L48.6184 15.536C49.2264 16.474 50.0435 17.2035 51.0649 17.7228L51.2915 17.2772ZM49.0398 15.2668C48.5013 14.4116 48.2282 13.4091 48.2282 12.25H47.7282C47.7282 13.4909 48.0218 14.5884 48.6167 15.5332L49.0398 15.2668ZM51.6282 12.25C51.6282 13.1848 51.9034 13.9537 52.4764 14.5268L52.83 14.1732C52.3697 13.713 52.1282 13.0818 52.1282 12.25H51.6282ZM52.4793 14.5296C53.0586 15.0908 53.7541 15.375 54.5532 15.375V14.875C53.8857 14.875 53.3145 14.6426 52.8272 14.1704L52.4793 14.5296ZM54.5532 15.375C55.3526 15.375 56.0413 15.0905 56.605 14.5268L56.2514 14.1732C55.7819 14.6428 55.2205 14.875 54.5532 14.875V15.375ZM56.6022 14.5296C57.1932 13.957 57.4782 13.1872 57.4782 12.25H56.9782C56.9782 13.0795 56.7299 13.7097 56.2543 14.1704L56.6022 14.5296ZM57.4782 12.25C57.4782 11.3128 57.1932 10.543 56.6022 9.97044L56.2543 10.3296C56.7299 10.7903 56.9782 11.4205 56.9782 12.25H57.4782ZM56.6078 9.97605C56.0447 9.3948 55.3552 9.1 54.5532 9.1V9.6C55.2179 9.6 55.7784 9.83854 56.2487 10.3239L56.6078 9.97605ZM54.5532 9.1C53.7515 9.1 53.0552 9.3945 52.4764 9.97322L52.83 10.3268C53.3179 9.83883 53.8883 9.6 54.5532 9.6V9.1ZM52.4764 9.97322C51.9034 10.5463 51.6282 11.3152 51.6282 12.25H52.1282C52.1282 11.4182 52.3697 10.787 52.83 10.3268L52.4764 9.97322ZM62.0249 6.5V6.25H61.7749V6.5H62.0249ZM70.0999 6.5H70.3499V6.25H70.0999V6.5ZM70.0999 9.625V9.875H70.3499V9.625H70.0999ZM67.8749 9.625V9.375H67.6249V9.625H67.8749ZM67.8749 18V18.25H68.1249V18H67.8749ZM64.2499 18H63.9999V18.25H64.2499V18ZM64.2499 9.625H64.4999V9.375H64.2499V9.625ZM62.0249 9.625H61.7749V9.875H62.0249V9.625ZM62.0249 6.75H70.0999V6.25H62.0249V6.75ZM69.8499 6.5V9.625H70.3499V6.5H69.8499ZM70.0999 9.375H67.8749V9.875H70.0999V9.375ZM67.6249 9.625V18H68.1249V9.625H67.6249ZM67.8749 17.75H64.2499V18.25H67.8749V17.75ZM64.4999 18V9.625H63.9999V18H64.4999ZM64.2499 9.375H62.0249V9.875H64.2499V9.375ZM62.2749 9.625V6.5H61.7749V9.625H62.2749ZM75.4001 6.5H75.6501V6.25H75.4001V6.5ZM75.4001 11.975H75.1501V12.4887L75.5543 12.1717L75.4001 11.975ZM83.5001 5.625H83.7501V5.11135L83.3459 5.42825L83.5001 5.625ZM83.5001 18V18.25H83.7501V18H83.5001ZM79.8501 18H79.6001V18.25H79.8501V18ZM79.8501 12.525H80.1001V12.0113L79.6959 12.3283L79.8501 12.525ZM71.7501 18.875H71.5001V19.3887L71.9043 19.0717L71.7501 18.875ZM71.7501 6.5V6.25H71.5001V6.5H71.7501ZM75.1501 6.5V11.975H75.6501V6.5H75.1501ZM75.5543 12.1717L83.6543 5.82175L83.3459 5.42825L75.2459 11.7783L75.5543 12.1717ZM83.2501 5.625V18H83.7501V5.625H83.2501ZM83.5001 17.75H79.8501V18.25H83.5001V17.75ZM80.1001 18V12.525H79.6001V18H80.1001ZM79.6959 12.3283L71.5959 18.6783L71.9043 19.0717L80.0043 12.7217L79.6959 12.3283ZM72.0001 18.875V6.5H71.5001V18.875H72.0001ZM71.7501 6.75H75.4001V6.25H71.7501V6.75ZM97.8956 6.5H98.1456V6.25H97.8956V6.5ZM97.8956 18V18.25H98.1456V18H97.8956ZM94.2456 18H93.9956V18.25H94.2456V18ZM94.2456 9.775H94.4956V9.525H94.2456V9.775ZM90.1206 9.775V9.525H89.8706V9.775H90.1206ZM90.1206 18V18.25H90.3706V18H90.1206ZM86.4706 18H86.2206V18.25H86.4706V18ZM86.4706 6.5V6.25H86.2206V6.5H86.4706ZM97.6456 6.5V18H98.1456V6.5H97.6456ZM97.8956 17.75H94.2456V18.25H97.8956V17.75ZM94.4956 18V9.775H93.9956V18H94.4956ZM94.2456 9.525H90.1206V10.025H94.2456V9.525ZM89.8706 9.775V18H90.3706V9.775H89.8706ZM90.1206 17.75H86.4706V18.25H90.1206V17.75ZM86.7206 18V6.5H86.2206V18H86.7206ZM86.4706 6.75H97.8956V6.25H86.4706V6.75Z" fill="#4B484E"/>
</g>
<defs>
<filter id="filter0_d" x="0.624512" y="0.25" width="101.521" height="27.1387" filterUnits="userSpaceOnUse" color-interpolation-filters="sRGB">
<feFlood flood-opacity="0" result="BackgroundImageFix"/>
<feColorMatrix in="SourceAlpha" type="matrix" values="0 0 0 0 0 0 0 0 0 0 0 0 0 0 0 0 0 0 127 0"/>
<feOffset dy="4"/>
<feGaussianBlur stdDeviation="2"/>
<feColorMatrix type="matrix" values="0 0 0 0 0 0 0 0 0 0 0 0 0 0 0 0 0 0 0.25 0"/>
<feBlend mode="normal" in2="BackgroundImageFix" result="effect1_dropShadow"/>
<feBlend mode="normal" in="SourceGraphic" in2="effect1_dropShadow" result="shape"/>
</filter>
</defs>
</svg>
